<svg xmlns="http://www.w3.org/2000/svg" width="300" height="55" viewBox="0 0 1337.11 243.2"><defs><style>.cls-1{fill:#fff;}</style></defs><title>footer_logo</title><g id="Layer_2" data-name="Layer 2"><g id="Layer_1-2" data-name="Layer 1"><path class="cls-1" d="M121.6,0A121.6,121.6,0,1,0,243.2,121.6,121.74,121.74,0,0,0,121.6,0ZM104.23,222.05a101.7,101.7,0,0,1-49.48-23.56c35.58-29.25,73.75-46.34,105.39-56.29a163.11,163.11,0,0,0-36.07,38.27A155.1,155.1,0,0,0,104.23,222.05ZM121.6,19.64a102.09,102.09,0,0,1,101.09,88.91H184.63a63.38,63.38,0,0,0-126.11,0h-38A102.09,102.09,0,0,1,121.6,19.64Zm43.24,88.91H78.3a43.74,43.74,0,0,1,86.54,0Zm-145,19.64H139.6a330.1,330.1,0,0,0-98.39,56A101.41,101.41,0,0,1,19.87,128.19Zm104.53,95.3c7.56-22.13,31.33-70.35,98.67-92A102.1,102.1,0,0,1,124.4,223.49Z"/><path class="cls-1" d="M1110,112.93V102h-13.26v10.91h-5.09v-27h5.09V97.32H1110V85.94h5v27Z"/><path class="cls-1" d="M1139,107.8h-14.11l-2.32,5.09h-5.51l12.11-27h5.55l12.1,27h-5.55Zm-7.06-16.23-5,11.49h10Z"/><path class="cls-1" d="M1166.88,85.87H1172v27h-3.16v0l-14.18-18.24v18.2h-5.09v-27h4.12l13.22,16.73Z"/><path class="cls-1" d="M1200.4,99.17c.12,6.82-4.05,13.72-13.49,13.72H1176.3v-27h10.61C1196.16,85.91,1200.28,92.5,1200.4,99.17Zm-19,8.83h5.55c6.13,0,8.56-4.47,8.44-8.87-.12-4.2-2.58-8.41-8.44-8.41h-5.55Z"/><path class="cls-1" d="M1208.86,85.91v22.28h13.87v4.7h-19v-27Z"/><path class="cls-1" d="M1226.37,112.89v-27h5.05v27Z"/><path class="cls-1" d="M1253.94,85.87H1259v27h-3.16v0l-14.19-18.24v18.2h-5.09v-27h4.13l13.22,16.73Z"/><path class="cls-1" d="M1283.75,92.5a10.31,10.31,0,0,0-6.86-2.7c-5.78,0-9.29,4.4-9.29,10,0,4.43,2.58,9,9.29,9a9,9,0,0,0,6.09-2.16v-4.78h-6.9V97.28h11.57v11.37a13.43,13.43,0,0,1-10.76,4.86c-10.14,0-14.26-6.67-14.26-13.76,0-7.6,4.74-14.62,14.26-14.62a14.26,14.26,0,0,1,10,4.13Z"/><path class="cls-1" d="M1321,105c0,1.58.69,2.93,2.43,2.93V113c-2,0-4.25-.47-5.09-3.55-1.77,2.89-4.86,3.78-7.71,3.78-5.91,0-10.68-1.89-10.72-8.56a6.24,6.24,0,0,1,4.16-5.63,5.69,5.69,0,0,1-3.62-5.47c0-5.75,5.47-8.1,10.29-8.1s9.83,1.81,9.87,7.64h-4.82c0-2.47-2.43-3.32-5.16-3.32-4,0-5.28,2.2-5.25,3.78,0,2.73,3.39,3.51,5.21,3.51h12.64v4H1321Zm-16.08-.31c0,2.85,2.81,4,5.63,4,1.81,0,5.63-1,5.63-3.7V101.1h-5.86C1306.56,101.1,1304.9,103.1,1304.9,104.72Z"/><path class="cls-1" d="M1118.12,151c-.07,7-4.35,14-13.84,14s-13.88-6.82-13.88-13.92,4.55-14.22,13.88-14.22S1118.2,143.93,1118.12,151Zm-22.7.12c.11,4.43,2.5,9.17,8.86,9.17s8.75-4.77,8.83-9.21-2.46-9.64-8.83-9.64S1095.3,146.55,1095.42,151.1Z"/><path class="cls-1" d="M1134.6,156.38H1127v7.94h-5.09v-27c4.24,0,8.48,0,12.72,0C1147.79,137.3,1147.82,156.38,1134.6,156.38Zm-7.63-4.66h7.63c6.52,0,6.48-9.57,0-9.57H1127Z"/><path class="cls-1" d="M1168.08,164.32h-20.2v-27h20.2v4.93h-15.15v6.21h14.61v4.74h-14.61v6.09h15.15Z"/><path class="cls-1" d="M1196,164.32h-6l-7.86-9h-4.9v9h-5.09v-27c4.28,0,8.56,0,12.84,0,6.36,0,9.72,4.27,9.72,8.94,0,3.7-1.7,7.44-6.83,8.48L1196,164Zm-18.81-22.24v8.63h7.75c3.24,0,4.63-2.16,4.63-4.31s-1.43-4.32-4.63-4.32Z"/><path class="cls-1" d="M1217.22,159.23h-14.11l-2.31,5.09h-5.51l12.1-27h5.55l12.11,27h-5.55Zm-7-16.23-5,11.49h10Z"/><path class="cls-1" d="M1229.92,142h-8.56v-4.62h22.21V142H1235v22.36h-5.09Z"/><path class="cls-1" d="M1246.7,164.32v-27h5v27Z"/><path class="cls-1" d="M1283.87,151c-.07,7-4.35,14-13.84,14s-13.88-6.82-13.88-13.92,4.55-14.22,13.88-14.22S1284,143.93,1283.87,151Zm-22.7.12c.11,4.43,2.5,9.17,8.86,9.17s8.75-4.77,8.83-9.21-2.47-9.64-8.83-9.64S1261.05,146.55,1261.17,151.1Z"/><path class="cls-1" d="M1305.36,137.3h5.09v27h-3.16v0l-14.19-18.23v18.19H1288v-27h4.13l13.22,16.73Z"/><path class="cls-1" d="M1332.22,143.85c-.93-1.54-3.48-3-6.41-3-3.77,0-5.59,1.57-5.59,3.58,0,2.35,2.78,3,6,3.39,5.62.7,10.87,2.16,10.87,8.6,0,6-5.32,8.6-11.34,8.6-5.51,0-9.75-1.7-11.75-6.63l4.24-2.2c1.19,3,4.31,4.28,7.59,4.28s6.21-1.12,6.21-4.05c0-2.54-2.66-3.59-6.25-4-5.51-.66-10.6-2.12-10.6-8.17,0-5.56,5.48-7.83,10.45-7.87,4.2,0,8.56,1.2,10.6,5.36Z"/><path class="cls-1" d="M372.12,158.83c-9.89,9.72-20.3,13.53-33,13.53-24.82,0-45.47-14.92-45.47-45.29s20.65-45.29,45.47-45.29c12.14,0,21.51,3.47,30.88,12.67l-13.36,14.06a25.94,25.94,0,0,0-17.18-6.77c-14.23,0-24.64,10.41-24.64,25.33,0,16.31,11.11,25,24.3,25,6.76,0,13.53-1.91,18.74-7.11Z"/><path class="cls-1" d="M402.51,48.46v121.3h-21V48.46Z"/><path class="cls-1" d="M439.14,134.53c1.39,10.59,10.59,18.22,25.51,18.22,7.81,0,18-2.94,22.9-8l13.54,13.36c-9,9.37-23.78,13.89-36.79,13.89-29.5,0-47-18.22-47-45.64,0-26,17.7-44.77,45.47-44.77,28.63,0,46.51,17.7,43.21,52.92ZM485.64,117c-1.38-11.11-10.06-16.66-22.21-16.66-11.45,0-20.82,5.55-23.94,16.66Z"/><path class="cls-1" d="M590.14,84.21h20.3v85.55h-20l-1-12.49c-4.86,10.06-18.23,14.92-27.77,15.09-25.34.18-44.08-15.44-44.08-45.46,0-29.5,19.61-44.94,44.6-44.77,11.45,0,22.39,5.38,27.25,13.88ZM538.77,126.9c0,16.31,11.28,26,25.34,26,33.31,0,33.31-51.89,0-51.89C550.05,101,538.77,110.59,538.77,126.9Z"/><path class="cls-1" d="M648,84.21l1.56,9.89C656.11,83.52,665,82,673.63,82c8.85,0,17.36,3.46,22,8.15l-9.54,18.4c-4.34-3.65-8.33-5.56-15.27-5.56-11.11,0-21.35,5.9-21.35,21.69v45.12H628.34V84.21Z"/><path class="cls-1" d="M780.3,84,799,148.42,818.65,84h23.43l-29.85,86.07H787.59l-8.85-25.34-7.64-28.63-7.63,28.63-8.85,25.34H730L700,84h23.6l19.61,64.38L761.73,84Z"/><path class="cls-1" d="M918.89,84.21H939.2v85.55h-20l-1-12.49c-4.86,10.06-18.22,14.92-27.76,15.09-25.34.18-44.08-15.44-44.08-45.46C846.36,97.4,866,82,891,82.13c11.45,0,22.38,5.38,27.24,13.88ZM867.53,126.9c0,16.31,11.28,26,25.34,26,33.31,0,33.31-51.89,0-51.89C878.81,101,867.53,110.59,867.53,126.9Z"/><path class="cls-1" d="M1046.53,84.21l-52.24,121.3H971l16-37.14L952.82,84.21h24.64l13,37,8.15,24.12,8.86-23.6,15.61-37.48Z"/></g></g></svg>